<svg xmlns="http://www.w3.org/2000/svg" xmlns:xlink="http://www.w3.org/1999/xlink" width="1000" zoomAndPan="magnify" viewBox="0 0 750 749.999995" height="1000" preserveAspectRatio="xMidYMid meet" version="1.0"><defs><clipPath id="f1c77770ad"><path d="M 323 241.167969 L 384 241.167969 L 384 349 L 323 349 Z M 323 241.167969 " clip-rule="nonzero"/></clipPath><clipPath id="57e6d02698"><path d="M 597.796875 367 L 599 367 L 599 368 L 597.796875 368 Z M 597.796875 367 " clip-rule="nonzero"/></clipPath><clipPath id="db7132f933"><path d="M 597.796875 366 L 600 366 L 600 368 L 597.796875 368 Z M 597.796875 366 " clip-rule="nonzero"/></clipPath><clipPath id="39c995c290"><path d="M 597.796875 366 L 600 366 L 600 367 L 597.796875 367 Z M 597.796875 366 " clip-rule="nonzero"/></clipPath><clipPath id="71de3ec19a"><path d="M 597.796875 365 L 600 365 L 600 367 L 597.796875 367 Z M 597.796875 365 " clip-rule="nonzero"/></clipPath><clipPath id="a3e16f693f"><path d="M 602 360.476562 L 603 360.476562 L 603 363 L 602 363 Z M 602 360.476562 " clip-rule="nonzero"/></clipPath><clipPath id="35c8991352"><path d="M 602 360.476562 L 604 360.476562 L 604 362 L 602 362 Z M 602 360.476562 " clip-rule="nonzero"/></clipPath><clipPath id="8ac6dbe9ad"><path d="M 603 360.476562 L 604 360.476562 L 604 362 L 603 362 Z M 603 360.476562 " clip-rule="nonzero"/></clipPath><clipPath id="d0b0975308"><path d="M 603 360.476562 L 605 360.476562 L 605 362 L 603 362 Z M 603 360.476562 " clip-rule="nonzero"/></clipPath><clipPath id="20cf2bd501"><path d="M 604 360.476562 L 605 360.476562 L 605 362 L 604 362 Z M 604 360.476562 " clip-rule="nonzero"/></clipPath><clipPath id="0d10d9369a"><path d="M 605 360.476562 L 606 360.476562 L 606 362 L 605 362 Z M 605 360.476562 " clip-rule="nonzero"/></clipPath><clipPath id="6e84ef3f80"><path d="M 606 360.476562 L 607 360.476562 L 607 362 L 606 362 Z M 606 360.476562 " clip-rule="nonzero"/></clipPath><clipPath id="b2e6a3636f"><path d="M 606 360.476562 L 608 360.476562 L 608 362 L 606 362 Z M 606 360.476562 " clip-rule="nonzero"/></clipPath><clipPath id="1e7688d97e"><path d="M 607 360.476562 L 608 360.476562 L 608 363 L 607 363 Z M 607 360.476562 " clip-rule="nonzero"/></clipPath><clipPath id="9405333e94"><path d="M 610 366 L 612.046875 366 L 612.046875 368 L 610 368 Z M 610 366 " clip-rule="nonzero"/></clipPath><clipPath id="e143bb6614"><path d="M 610 367 L 612.046875 367 L 612.046875 368 L 610 368 Z M 610 367 " clip-rule="nonzero"/></clipPath><clipPath id="f9aad8d459"><path d="M 610 367 L 612.046875 367 L 612.046875 369 L 610 369 Z M 610 367 " clip-rule="nonzero"/></clipPath><clipPath id="a073a9603b"><path d="M 610 368 L 612.046875 368 L 612.046875 369 L 610 369 Z M 610 368 " clip-rule="nonzero"/></clipPath><clipPath id="72bcdac891"><path d="M 607 372 L 609 372 L 609 374.726562 L 607 374.726562 Z M 607 372 " clip-rule="nonzero"/></clipPath><clipPath id="dbd0b636c3"><path d="M 607 373 L 608 373 L 608 374.726562 L 607 374.726562 Z M 607 373 " clip-rule="nonzero"/></clipPath><clipPath id="9a78da6358"><path d="M 606 373 L 608 373 L 608 374.726562 L 606 374.726562 Z M 606 373 " clip-rule="nonzero"/></clipPath><clipPath id="1ffc0a1b72"><path d="M 606 373 L 607 373 L 607 374.726562 L 606 374.726562 Z M 606 373 " clip-rule="nonzero"/></clipPath><clipPath id="d60b3375ce"><path d="M 605 373 L 607 373 L 607 374.726562 L 605 374.726562 Z M 605 373 " clip-rule="nonzero"/></clipPath><clipPath id="3455aee587"><path d="M 605 373 L 606 373 L 606 374.726562 L 605 374.726562 Z M 605 373 " clip-rule="nonzero"/></clipPath><clipPath id="d5448205b0"><path d="M 604 373 L 605 373 L 605 374.726562 L 604 374.726562 Z M 604 373 " clip-rule="nonzero"/></clipPath><clipPath id="6c7d0b5b46"><path d="M 603 373 L 605 373 L 605 374.726562 L 603 374.726562 Z M 603 373 " clip-rule="nonzero"/></clipPath><clipPath id="a9c013a4e2"><path d="M 603 373 L 604 373 L 604 374.726562 L 603 374.726562 Z M 603 373 " clip-rule="nonzero"/></clipPath><clipPath id="9ad96a7fe2"><path d="M 602 373 L 604 373 L 604 374.726562 L 602 374.726562 Z M 602 373 " clip-rule="nonzero"/></clipPath><clipPath id="242773a25c"><path d="M 602 373 L 603 373 L 603 374.726562 L 602 374.726562 Z M 602 373 " clip-rule="nonzero"/></clipPath><clipPath id="fab68ecd19"><path d="M 597.796875 368 L 600 368 L 600 370 L 597.796875 370 Z M 597.796875 368 " clip-rule="nonzero"/></clipPath><clipPath id="5a4dbab90e"><path d="M 597.796875 368 L 600 368 L 600 369 L 597.796875 369 Z M 597.796875 368 " clip-rule="nonzero"/></clipPath><clipPath id="ab6971b067"><path d="M 597.796875 367 L 599 367 L 599 369 L 597.796875 369 Z M 597.796875 367 " clip-rule="nonzero"/></clipPath></defs><path fill="#2b1511" d="M 141.601562 339.25 C 141.964844 333.082031 142.640625 321.574219 142.71875 319.855469 C 143.683594 298.207031 143.851562 276.84375 138.753906 255.613281 C 137.832031 251.75 133.933594 249.359375 130.070312 250.292969 C 126.199219 251.214844 123.816406 255.109375 124.742188 258.976562 C 129.523438 278.886719 129.230469 298.917969 128.328125 319.21875 C 128.222656 321.457031 126.816406 335.507812 126.898438 342.011719 C 126.949219 345.660156 127.902344 348.128906 128.464844 349 C 129.355469 350.351562 131.128906 351.964844 134.007812 352.8125 C 137.511719 353.84375 144.710938 353.929688 146.652344 354.03125 C 159.765625 354.707031 173.273438 353.777344 186.425781 353.585938 C 190.398438 353.527344 193.582031 350.261719 193.523438 346.277344 C 193.464844 342.304688 190.191406 339.125 186.21875 339.179688 C 173.382812 339.367188 160.195312 340.300781 147.390625 339.644531 C 146.613281 339.605469 143.898438 339.410156 141.601562 339.25 Z M 141.601562 339.25 " fill-opacity="1" fill-rule="evenodd"/><path fill="#2b1511" d="M 229.097656 286.097656 C 211.285156 277.046875 197.839844 282.816406 190.765625 292.671875 C 180.25 307.335938 183.75 333.230469 209.828125 339.769531 C 223.648438 343.234375 234.4375 337.652344 240.460938 328.945312 C 249.421875 316.003906 247.78125 295.585938 229.097656 286.097656 Z M 222.585938 298.949219 C 232.109375 303.785156 233.175781 314.144531 228.609375 320.742188 C 225.621094 325.066406 220.171875 327.5 213.328125 325.789062 C 199.46875 322.324219 196.886719 308.867188 202.480469 301.070312 C 206.15625 295.953125 213.316406 294.25 222.585938 298.949219 Z M 222.585938 298.949219 " fill-opacity="1" fill-rule="evenodd"/><path fill="#2b1511" d="M 300.285156 332.691406 C 300.261719 338.140625 300.195312 343.285156 300.042969 346.757812 C 299.878906 350.742188 302.964844 354.097656 306.9375 354.277344 C 310.90625 354.445312 314.277344 351.355469 314.441406 347.382812 C 314.953125 335.421875 314.902344 308.421875 314.441406 304.847656 C 313.917969 300.726562 311.199219 299.347656 310.601562 299.027344 C 308.660156 297.980469 306.695312 297.890625 304.726562 298.605469 C 303.785156 298.949219 301.152344 299.871094 300.171875 303.671875 C 298.398438 310.402344 297.644531 311.523438 293.863281 317.679688 C 290.496094 323.15625 286.5625 325.925781 282.527344 326.308594 C 276.859375 326.832031 271.589844 322.875 269.507812 317.820312 C 267.082031 311.921875 269.992188 305 280.460938 300.265625 C 286.714844 297.445312 293.457031 295.503906 300.234375 294.484375 C 304.167969 293.882812 306.886719 290.21875 306.285156 286.285156 C 305.699219 282.355469 302.023438 279.636719 298.089844 280.222656 C 290.023438 281.449219 281.96875 283.773438 274.523438 287.128906 C 264.757812 291.546875 259.21875 297.496094 256.472656 303.484375 C 253.410156 310.160156 253.652344 317.140625 256.179688 323.28125 C 260.546875 333.929688 271.945312 341.765625 283.867188 340.644531 C 289.359375 340.132812 295.117188 337.796875 300.285156 332.691406 Z M 300.285156 332.691406 " fill-opacity="1" fill-rule="evenodd"/><g clip-path="url(#f1c77770ad)"><path fill="#2b1511" d="M 364.542969 296.78125 C 355.007812 292.804688 344.191406 292.328125 335.0625 298.40625 C 326.890625 303.855469 322.875 313.625 323.394531 323.21875 C 323.910156 332.898438 328.996094 342.160156 338.113281 346.53125 C 344.742188 349.710938 351.328125 348.96875 357.203125 345.859375 C 362.0625 343.296875 366.394531 338.945312 369.597656 334.332031 C 370.917969 336.832031 373.652344 338.429688 376.640625 338.152344 C 380.605469 337.789062 383.523438 334.269531 383.15625 330.316406 C 382.648438 324.929688 381.828125 319.539062 381.1875 314.140625 C 381.828125 312.210938 381.632812 310.066406 380.597656 308.277344 C 380.34375 305.308594 380.210938 302.328125 380.269531 299.339844 C 380.414062 292.734375 377.699219 255.332031 377.089844 248.910156 C 376.90625 246.945312 376.457031 245.878906 376.398438 245.746094 C 375.503906 243.734375 374.191406 242.882812 373.417969 242.421875 C 371.476562 241.304688 369.566406 241.214844 367.746094 241.753906 C 367.054688 241.964844 362.949219 243.003906 362.613281 248.21875 C 361.789062 260.691406 363.546875 274.261719 364.269531 287.640625 C 364.433594 290.699219 364.542969 293.761719 364.542969 296.78125 Z M 363.222656 312.097656 C 357.011719 308.105469 349.4375 306.152344 343.054688 310.402344 C 339.128906 313.015625 337.535156 317.84375 337.789062 322.449219 C 338.023438 326.972656 340.085938 331.496094 344.34375 333.539062 C 347.222656 334.921875 349.988281 333.679688 352.367188 331.914062 C 355.894531 329.289062 358.710938 325.265625 360.246094 321.757812 C 361.597656 318.644531 362.5625 315.421875 363.222656 312.097656 Z M 363.222656 312.097656 " fill-opacity="1" fill-rule="evenodd"/></g><path fill="#2b1511" d="M 391.796875 296.253906 C 393.03125 311.3125 392.535156 326.109375 392.175781 341.175781 C 392.074219 345.144531 395.226562 348.460938 399.199219 348.550781 C 403.179688 348.648438 406.484375 345.496094 406.574219 341.527344 C 406.953125 325.945312 407.441406 310.644531 406.160156 295.074219 C 405.835938 291.109375 402.351562 288.15625 398.390625 288.480469 C 394.425781 288.804688 391.472656 292.28125 391.796875 296.253906 Z M 391.796875 296.253906 " fill-opacity="1" fill-rule="evenodd"/><path fill="#2b1511" d="M 393.21875 273.097656 C 394.355469 273.746094 395.488281 274.359375 396.640625 274.980469 C 400.136719 276.871094 404.511719 275.566406 406.402344 272.0625 C 408.296875 268.570312 406.980469 264.191406 403.488281 262.300781 C 402.421875 261.722656 401.359375 261.15625 400.308594 260.554688 C 396.839844 258.597656 392.445312 259.824219 390.492188 263.28125 C 388.527344 266.75 389.753906 271.144531 393.21875 273.097656 Z M 393.21875 273.097656 " fill-opacity="1" fill-rule="evenodd"/><path fill="#2b1511" d="M 556.992188 347.621094 C 558.128906 348.269531 559.261719 348.878906 560.414062 349.5 C 563.910156 351.394531 568.289062 350.085938 570.179688 346.582031 C 572.070312 343.089844 570.753906 338.710938 567.261719 336.820312 C 566.199219 336.246094 565.136719 335.675781 564.082031 335.074219 C 560.613281 333.121094 556.21875 334.34375 554.265625 337.804688 C 552.300781 341.269531 553.527344 345.664062 556.992188 347.621094 Z M 556.992188 347.621094 " fill-opacity="1" fill-rule="evenodd"/><path fill="#2b1511" d="M 584.410156 347.621094 C 585.542969 348.269531 586.679688 348.878906 587.832031 349.5 C 591.328125 351.394531 595.703125 350.085938 597.59375 346.582031 C 599.484375 343.089844 598.171875 338.710938 594.675781 336.820312 C 593.613281 336.246094 592.550781 335.675781 591.496094 335.074219 C 588.03125 333.121094 583.636719 334.34375 581.679688 337.804688 C 579.71875 341.269531 580.941406 345.664062 584.410156 347.621094 Z M 584.410156 347.621094 " fill-opacity="1" fill-rule="evenodd"/><path fill="#2b1511" d="M 611.828125 347.621094 C 612.960938 348.269531 614.097656 348.878906 615.25 349.5 C 618.742188 351.394531 623.121094 350.085938 625.011719 346.582031 C 626.902344 343.089844 625.585938 338.710938 622.09375 336.820312 C 621.03125 336.246094 619.96875 335.675781 618.914062 335.074219 C 615.445312 333.121094 611.050781 334.34375 609.097656 337.804688 C 607.132812 341.269531 608.359375 345.664062 611.828125 347.621094 Z M 611.828125 347.621094 " fill-opacity="1" fill-rule="evenodd"/><path fill="#2b1511" d="M 420.304688 298.449219 C 420.644531 312.171875 419.699219 325.472656 418.972656 339.152344 C 418.753906 343.125 421.808594 346.519531 425.78125 346.726562 C 429.75 346.945312 433.148438 343.890625 433.355469 339.917969 C 434.109375 325.871094 435.054688 312.191406 434.703125 298.085938 C 434.605469 294.105469 431.300781 290.964844 427.328125 291.0625 C 423.347656 291.160156 420.207031 294.464844 420.304688 298.449219 Z M 420.304688 298.449219 " fill-opacity="1" fill-rule="evenodd"/><path fill="#2b1511" d="M 450.953125 303.894531 C 451.105469 304.21875 451.277344 304.589844 451.382812 304.90625 C 451.90625 306.460938 452.230469 308.308594 452.457031 310.308594 C 453.636719 320.863281 451.898438 334.894531 451.761719 339.324219 C 451.644531 343.296875 454.777344 346.621094 458.75 346.738281 C 462.730469 346.855469 466.054688 343.71875 466.171875 339.75 C 466.332031 334.09375 468.601562 314.171875 465.722656 302.652344 C 463.585938 294.117188 458.5625 289.359375 451.988281 289.242188 C 449.167969 289.199219 445.304688 290.386719 441.234375 292.683594 C 434.742188 296.359375 427.039062 302.871094 423.511719 305.28125 C 420.222656 307.535156 419.386719 312.019531 421.628906 315.296875 C 423.878906 318.585938 428.363281 319.421875 431.644531 317.179688 C 434.550781 315.179688 440.386719 310.273438 445.933594 306.6875 C 447.464844 305.695312 448.960938 304.816406 450.347656 304.191406 C 450.5625 304.101562 450.761719 303.996094 450.953125 303.894531 Z M 450.953125 303.894531 " fill-opacity="1" fill-rule="evenodd"/><path fill="#2b1511" d="M 514.339844 339.433594 C 513.664062 345.089844 512.746094 351.238281 509.601562 355.589844 C 504.460938 362.730469 493.660156 359.921875 488.671875 353.609375 C 486.203125 350.484375 481.664062 349.960938 478.550781 352.417969 C 475.425781 354.886719 474.902344 359.425781 477.359375 362.542969 C 487.796875 375.746094 510.546875 378.933594 521.292969 364.011719 C 526.667969 356.5625 527.992188 345.367188 529.207031 336.542969 C 530.269531 328.832031 530.414062 321.113281 530.511719 313.351562 C 530.539062 310.847656 530.621094 308.335938 530.550781 305.832031 C 530.585938 305.425781 530.820312 302.273438 530.71875 301.492188 C 530.578125 300.367188 530.234375 299.511719 529.910156 298.898438 C 528.386719 295.988281 526.011719 294.996094 523.496094 294.980469 C 522.210938 294.972656 519.878906 295.097656 517.679688 297.746094 C 517.347656 298.148438 516.996094 298.699219 516.644531 299.375 C 513.824219 297.527344 510.773438 296.085938 507.421875 295.320312 C 503.757812 294.492188 499.585938 294.285156 495.875 294.980469 C 487.355469 296.566406 482.421875 300.871094 479.828125 305.929688 C 476.164062 313.109375 477.433594 322.664062 482.1875 330.328125 C 486.953125 338 494.957031 343.378906 503.109375 343.234375 C 506.792969 343.171875 510.636719 342.082031 514.339844 339.433594 Z M 512.628906 314.34375 C 512.332031 314.164062 512.050781 313.957031 511.78125 313.722656 C 509.546875 311.820312 507.144531 310.039062 504.234375 309.378906 C 502.414062 308.964844 500.351562 308.804688 498.515625 309.144531 C 495.5625 309.695312 493.5625 310.730469 492.660156 312.488281 C 491.113281 315.53125 492.417969 319.476562 494.4375 322.726562 C 496.445312 325.96875 499.40625 328.886719 502.855469 328.824219 C 504.898438 328.789062 506.808594 327.410156 508.726562 324.90625 C 510.644531 322.394531 511.761719 318.367188 512.628906 314.34375 Z M 512.628906 314.34375 " fill-opacity="1" fill-rule="evenodd"/><path fill="#2b1511" d="M 86.855469 388.902344 C 81.5625 388.40625 76.285156 390.117188 72.285156 393.640625 C 68.234375 397.207031 65.855469 402.304688 65.730469 407.699219 C 64.882812 426.621094 61.929688 456.519531 63.261719 476.457031 C 63.953125 486.886719 66.199219 494.929688 69.464844 498.875 C 70.347656 499.9375 72.617188 501.703125 76.851562 502.601562 C 84.34375 504.207031 103.238281 505.324219 129.988281 505.90625 C 260.480469 508.773438 582.238281 500.558594 659.707031 494.480469 C 666.804688 493.921875 671.945312 493.363281 674.820312 492.847656 C 677.160156 492.433594 678.65625 491.832031 679.375 491.4375 C 681.96875 489.984375 682.78125 487.960938 683.113281 486.535156 C 686.167969 473.226562 688.03125 436.238281 685.175781 411.671875 C 684.390625 404.953125 683.246094 399.105469 681.753906 394.792969 C 680.394531 390.867188 678.621094 387.976562 676.773438 386.164062 C 675.917969 385.328125 673.621094 383.859375 669.503906 383.203125 C 661.992188 382.011719 643.035156 381.417969 616.226562 381.3125 C 485.125 380.824219 162.300781 391.273438 86.855469 388.902344 Z M 667.46875 397.621094 C 667.917969 398.546875 668.261719 399.78125 668.660156 401.195312 C 669.613281 404.527344 670.324219 408.679688 670.863281 413.335938 C 673.25 433.933594 672.207031 463.867188 669.902344 478.792969 C 661.851562 479.546875 639.867188 481.484375 613.613281 482.71875 C 492.207031 488.410156 225.9375 494.335938 119.945312 491.238281 C 100.664062 490.679688 84.121094 488.851562 79.804688 488.347656 C 79.480469 487.535156 79.21875 486.546875 78.957031 485.4375 C 78.300781 482.65625 77.886719 479.277344 77.644531 475.496094 C 76.339844 455.988281 79.308594 426.738281 80.121094 408.246094 C 80.128906 408.183594 80.128906 408.128906 80.128906 408.066406 C 80.15625 406.679688 80.761719 405.375 81.804688 404.457031 C 82.839844 403.546875 84.21875 403.105469 85.597656 403.257812 C 85.785156 403.277344 85.964844 403.292969 86.15625 403.292969 C 161.191406 405.699219 484.828125 395.234375 616.171875 395.71875 C 641.046875 395.820312 662.488281 397.261719 667.46875 397.621094 Z M 667.46875 397.621094 " fill-opacity="1" fill-rule="evenodd"/><path fill="#ff4a8f" d="M 97.195312 416.066406 C 95.992188 415.96875 94.796875 416.359375 93.875 417.152344 C 92.964844 417.949219 92.410156 419.078125 92.332031 420.289062 C 91.054688 440.8125 89.179688 463.605469 90.941406 472.988281 C 93.253906 485.226562 572.246094 472.273438 571.800781 467.980469 C 570.890625 459.324219 573.113281 421.488281 567.675781 413.945312 C 562.414062 406.640625 160.730469 418.660156 97.195312 416.066406 Z M 97.195312 416.066406 " fill-opacity="1" fill-rule="evenodd"/><path fill="#100f0d" d="M 598.5 367.535156 L 598.5 367.480469 L 598.6875 367.484375 L 598.386719 367.460938 L 598.089844 367.476562 L 598.277344 367.480469 L 598.277344 367.535156 L 598.5 367.535156 " fill-opacity="1" fill-rule="nonzero"/><g clip-path="url(#57e6d02698)"><path fill="#100f0d" d="M 598.167969 367.304688 L 598.613281 367.320312 L 598.621094 367.210938 L 598.996094 367.230469 C 598.796875 367.210938 598.597656 367.1875 598.398438 367.164062 C 598.199219 367.164062 598 367.167969 597.796875 367.167969 L 598.175781 367.1875 L 598.167969 367.304688 " fill-opacity="1" fill-rule="nonzero"/></g><g clip-path="url(#db7132f933)"><path fill="#100f0d" d="M 598.1875 366.996094 L 598.632812 367.03125 L 598.640625 366.921875 L 599.015625 366.960938 C 598.816406 366.929688 598.621094 366.898438 598.421875 366.867188 C 598.222656 366.859375 598.023438 366.851562 597.824219 366.84375 L 598.199219 366.878906 L 598.1875 366.996094 " fill-opacity="1" fill-rule="nonzero"/></g><g clip-path="url(#39c995c290)"><path fill="#100f0d" d="M 598.21875 366.691406 L 598.660156 366.746094 L 598.675781 366.636719 L 599.050781 366.691406 C 598.851562 366.652344 598.65625 366.609375 598.460938 366.570312 C 598.261719 366.550781 598.0625 366.535156 597.863281 366.519531 L 598.234375 366.574219 L 598.21875 366.691406 " fill-opacity="1" fill-rule="nonzero"/><path fill="#100f0d" d="M 598.265625 366.386719 L 598.703125 366.460938 L 598.722656 366.351562 L 599.09375 366.421875 C 598.898438 366.375 598.707031 366.324219 598.511719 366.277344 C 598.3125 366.25 598.117188 366.222656 597.917969 366.199219 L 598.289062 366.269531 L 598.265625 366.386719 " fill-opacity="1" fill-rule="nonzero"/></g><g clip-path="url(#71de3ec19a)"><path fill="#100f0d" d="M 598.324219 366.082031 L 598.761719 366.175781 L 598.785156 366.070312 L 599.152344 366.15625 C 598.960938 366.101562 598.769531 366.042969 598.578125 365.984375 C 598.378906 365.949219 598.183594 365.914062 597.988281 365.878906 L 598.351562 365.96875 L 598.324219 366.082031 " fill-opacity="1" fill-rule="nonzero"/></g><path fill="#100f0d" d="M 598.402344 365.78125 L 598.832031 365.898438 L 598.859375 365.792969 L 599.222656 365.894531 C 599.035156 365.832031 598.84375 365.761719 598.65625 365.695312 C 598.460938 365.652344 598.265625 365.609375 598.070312 365.566406 L 598.433594 365.667969 L 598.402344 365.78125 " fill-opacity="1" fill-rule="nonzero"/><path fill="#100f0d" d="M 598.488281 365.484375 L 598.914062 365.621094 L 598.949219 365.515625 L 599.304688 365.636719 C 599.121094 365.5625 598.933594 365.488281 598.75 365.410156 C 598.558594 365.359375 598.363281 365.304688 598.171875 365.253906 L 598.527344 365.375 L 598.488281 365.484375 " fill-opacity="1" fill-rule="nonzero"/><path fill="#100f0d" d="M 598.59375 365.195312 L 599.007812 365.347656 L 599.050781 365.246094 L 599.398438 365.382812 C 599.21875 365.300781 599.035156 365.214844 598.855469 365.132812 C 598.664062 365.070312 598.476562 365.007812 598.285156 364.949219 L 598.636719 365.085938 L 598.59375 365.195312 " fill-opacity="1" fill-rule="nonzero"/><path fill="#100f0d" d="M 598.707031 364.90625 L 599.117188 365.082031 L 599.164062 364.980469 L 599.507812 365.132812 C 599.328125 365.042969 599.152344 364.949219 598.972656 364.859375 C 598.789062 364.785156 598.601562 364.714844 598.414062 364.648438 L 598.757812 364.800781 L 598.707031 364.90625 " fill-opacity="1" fill-rule="nonzero"/><path fill="#100f0d" d="M 598.835938 364.625 L 599.238281 364.820312 L 599.289062 364.722656 L 599.625 364.890625 C 599.449219 364.789062 599.277344 364.691406 599.105469 364.589844 C 598.921875 364.507812 598.738281 364.429688 598.554688 364.351562 L 598.890625 364.523438 L 598.835938 364.625 " fill-opacity="1" fill-rule="nonzero"/><path fill="#100f0d" d="M 598.980469 364.351562 L 599.371094 364.5625 L 599.425781 364.464844 L 599.753906 364.648438 C 599.585938 364.542969 599.417969 364.4375 599.25 364.328125 C 599.070312 364.238281 598.890625 364.152344 598.710938 364.066406 L 599.039062 364.25 L 598.980469 364.351562 " fill-opacity="1" fill-rule="nonzero"/><path fill="#100f0d" d="M 599.136719 364.082031 L 599.515625 364.3125 L 599.574219 364.21875 L 599.894531 364.417969 C 599.730469 364.304688 599.566406 364.1875 599.40625 364.070312 C 599.230469 363.976562 599.054688 363.878906 598.878906 363.785156 L 599.199219 363.984375 L 599.136719 364.082031 " fill-opacity="1" fill-rule="nonzero"/><path fill="#100f0d" d="M 599.304688 363.824219 L 599.671875 364.070312 L 599.734375 363.976562 L 600.046875 364.191406 C 599.886719 364.070312 599.730469 363.945312 599.574219 363.824219 C 599.402344 363.71875 599.230469 363.617188 599.0625 363.515625 L 599.371094 363.726562 L 599.304688 363.824219 " fill-opacity="1" fill-rule="nonzero"/><path fill="#100f0d" d="M 599.484375 363.570312 L 599.839844 363.832031 L 599.90625 363.746094 L 600.207031 363.972656 C 600.054688 363.84375 599.902344 363.714844 599.753906 363.582031 C 599.585938 363.472656 599.421875 363.359375 599.253906 363.25 L 599.554688 363.476562 L 599.484375 363.570312 " fill-opacity="1" fill-rule="nonzero"/><path fill="#100f0d" d="M 599.671875 363.328125 L 600.019531 363.605469 L 600.089844 363.519531 L 600.378906 363.761719 C 600.230469 363.625 600.085938 363.488281 599.941406 363.351562 C 599.78125 363.234375 599.621094 363.113281 599.460938 362.996094 L 599.75 363.238281 L 599.671875 363.328125 " fill-opacity="1" fill-rule="nonzero"/><path fill="#100f0d" d="M 599.875 363.09375 L 600.207031 363.386719 L 600.28125 363.304688 L 600.558594 363.558594 C 600.421875 363.414062 600.28125 363.273438 600.144531 363.128906 C 599.988281 363.003906 599.835938 362.878906 599.679688 362.753906 L 599.957031 363.003906 L 599.875 363.09375 " fill-opacity="1" fill-rule="nonzero"/><path fill="#100f0d" d="M 600.089844 362.867188 L 600.40625 363.175781 L 600.484375 363.097656 L 600.75 363.363281 C 600.617188 363.214844 600.484375 363.066406 600.355469 362.914062 C 600.207031 362.78125 600.058594 362.648438 599.90625 362.519531 L 600.171875 362.785156 L 600.089844 362.867188 " fill-opacity="1" fill-rule="nonzero"/><path fill="#100f0d" d="M 600.3125 362.652344 L 600.613281 362.972656 L 600.695312 362.898438 L 600.949219 363.175781 C 600.824219 363.023438 600.699219 362.867188 600.574219 362.710938 C 600.433594 362.570312 600.289062 362.433594 600.148438 362.292969 L 600.398438 362.570312 L 600.3125 362.652344 " fill-opacity="1" fill-rule="nonzero"/><path fill="#100f0d" d="M 600.542969 362.445312 L 600.832031 362.78125 L 600.917969 362.710938 L 601.15625 363 C 601.039062 362.839844 600.921875 362.679688 600.804688 362.519531 C 600.667969 362.371094 600.535156 362.226562 600.394531 362.082031 L 600.636719 362.371094 L 600.542969 362.445312 " fill-opacity="1" fill-rule="nonzero"/><path fill="#100f0d" d="M 600.785156 362.25 L 601.058594 362.597656 L 601.148438 362.535156 L 601.371094 362.832031 C 601.261719 362.667969 601.152344 362.5 601.042969 362.335938 C 600.914062 362.183594 600.785156 362.03125 600.65625 361.882812 L 600.882812 362.179688 L 600.785156 362.25 " fill-opacity="1" fill-rule="nonzero"/><path fill="#100f0d" d="M 601.039062 362.066406 L 601.292969 362.425781 L 601.386719 362.367188 L 601.597656 362.675781 C 601.492188 362.503906 601.390625 362.335938 601.289062 362.164062 C 601.167969 362.007812 601.046875 361.847656 600.921875 361.691406 L 601.136719 362 L 601.039062 362.066406 " fill-opacity="1" fill-rule="nonzero"/><path fill="#100f0d" d="M 601.296875 361.894531 L 601.535156 362.265625 L 601.628906 362.210938 L 601.828125 362.527344 C 601.730469 362.351562 601.636719 362.179688 601.542969 362.003906 C 601.429688 361.839844 601.316406 361.675781 601.199219 361.515625 L 601.398438 361.835938 L 601.296875 361.894531 " fill-opacity="1" fill-rule="nonzero"/><path fill="#100f0d" d="M 601.5625 361.734375 L 601.785156 362.117188 L 601.882812 362.066406 L 602.0625 362.390625 C 601.976562 362.214844 601.890625 362.035156 601.804688 361.855469 C 601.699219 361.6875 601.59375 361.519531 601.484375 361.351562 L 601.667969 361.679688 L 601.5625 361.734375 " fill-opacity="1" fill-rule="nonzero"/><path fill="#100f0d" d="M 601.839844 361.589844 L 602.039062 361.980469 L 602.140625 361.929688 L 602.304688 362.265625 C 602.226562 362.082031 602.152344 361.902344 602.074219 361.71875 C 601.976562 361.546875 601.878906 361.375 601.777344 361.203125 L 601.945312 361.535156 L 601.839844 361.589844 " fill-opacity="1" fill-rule="nonzero"/><path fill="#100f0d" d="M 602.117188 361.453125 L 602.304688 361.855469 L 602.40625 361.8125 L 602.554688 362.152344 C 602.484375 361.964844 602.417969 361.78125 602.347656 361.59375 C 602.257812 361.417969 602.167969 361.242188 602.078125 361.066406 L 602.226562 361.40625 L 602.117188 361.453125 " fill-opacity="1" fill-rule="nonzero"/><g clip-path="url(#a3e16f693f)"><path fill="#100f0d" d="M 602.40625 361.332031 L 602.570312 361.742188 L 602.675781 361.703125 L 602.808594 362.050781 C 602.746094 361.859375 602.6875 361.671875 602.628906 361.484375 C 602.546875 361.300781 602.464844 361.121094 602.382812 360.941406 L 602.515625 361.289062 L 602.40625 361.332031 " fill-opacity="1" fill-rule="nonzero"/></g><g clip-path="url(#35c8991352)"><path fill="#100f0d" d="M 602.699219 361.222656 L 602.84375 361.640625 L 602.949219 361.605469 L 603.066406 361.960938 C 603.015625 361.769531 602.964844 361.578125 602.914062 361.382812 C 602.839844 361.199219 602.765625 361.015625 602.691406 360.832031 L 602.808594 361.1875 L 602.699219 361.222656 " fill-opacity="1" fill-rule="nonzero"/><path fill="#100f0d" d="M 603.121094 361.550781 L 603.226562 361.523438 L 603.328125 361.882812 C 603.285156 361.6875 603.246094 361.492188 603.203125 361.300781 C 603.140625 361.113281 603.074219 360.925781 603.007812 360.738281 L 603.109375 361.097656 L 602.996094 361.128906 L 603.121094 361.550781 " fill-opacity="1" fill-rule="nonzero"/></g><g clip-path="url(#8ac6dbe9ad)"><path fill="#100f0d" d="M 603.402344 361.476562 L 603.511719 361.453125 L 603.59375 361.816406 C 603.558594 361.621094 603.527344 361.425781 603.496094 361.226562 C 603.441406 361.039062 603.386719 360.847656 603.328125 360.660156 L 603.410156 361.023438 L 603.296875 361.046875 L 603.402344 361.476562 " fill-opacity="1" fill-rule="nonzero"/><path fill="#100f0d" d="M 603.648438 360.59375 L 603.71875 360.960938 L 603.601562 360.980469 L 603.6875 361.414062 L 603.796875 361.394531 L 603.863281 361.761719 C 603.839844 361.5625 603.8125 361.367188 603.792969 361.171875 C 603.746094 360.976562 603.699219 360.785156 603.648438 360.59375 " fill-opacity="1" fill-rule="nonzero"/></g><g clip-path="url(#d0b0975308)"><path fill="#100f0d" d="M 603.976562 360.542969 L 604.023438 360.914062 L 603.910156 360.929688 L 603.972656 361.363281 L 604.082031 361.347656 L 604.132812 361.71875 C 604.117188 361.519531 604.101562 361.324219 604.089844 361.125 C 604.054688 360.929688 604.015625 360.738281 603.976562 360.542969 " fill-opacity="1" fill-rule="nonzero"/></g><g clip-path="url(#20cf2bd501)"><path fill="#100f0d" d="M 604.261719 361.328125 L 604.375 361.316406 L 604.40625 361.6875 C 604.398438 361.492188 604.394531 361.292969 604.390625 361.09375 C 604.363281 360.898438 604.332031 360.703125 604.304688 360.507812 L 604.335938 360.878906 L 604.21875 360.890625 L 604.261719 361.328125 " fill-opacity="1" fill-rule="nonzero"/><path fill="#100f0d" d="M 604.554688 361.304688 L 604.664062 361.300781 L 604.679688 361.671875 C 604.683594 361.472656 604.6875 361.277344 604.691406 361.078125 C 604.671875 360.882812 604.652344 360.683594 604.632812 360.488281 L 604.648438 360.859375 L 604.527344 360.867188 L 604.554688 361.304688 " fill-opacity="1" fill-rule="nonzero"/><path fill="#100f0d" d="M 604.957031 361.292969 L 604.953125 361.667969 C 604.964844 361.46875 604.980469 361.273438 604.992188 361.074219 C 604.984375 360.878906 604.972656 360.679688 604.960938 360.480469 L 604.957031 360.855469 C 604.917969 360.855469 604.878906 360.855469 604.839844 360.855469 L 604.84375 361.296875 C 604.882812 361.292969 604.917969 361.292969 604.957031 361.292969 " fill-opacity="1" fill-rule="nonzero"/></g><g clip-path="url(#0d10d9369a)"><path fill="#100f0d" d="M 605.226562 361.675781 C 605.25 361.480469 605.273438 361.28125 605.292969 361.085938 C 605.292969 360.886719 605.292969 360.6875 605.289062 360.492188 L 605.269531 360.863281 L 605.152344 360.859375 L 605.136719 361.296875 L 605.246094 361.304688 L 605.226562 361.675781 " fill-opacity="1" fill-rule="nonzero"/><path fill="#100f0d" d="M 605.5 361.695312 C 605.53125 361.5 605.5625 361.304688 605.597656 361.109375 C 605.605469 360.910156 605.613281 360.714844 605.617188 360.515625 L 605.582031 360.886719 L 605.464844 360.875 L 605.429688 361.316406 L 605.539062 361.324219 L 605.5 361.695312 " fill-opacity="1" fill-rule="nonzero"/><path fill="#100f0d" d="M 605.773438 360.90625 L 605.71875 361.34375 L 605.828125 361.359375 L 605.773438 361.726562 C 605.8125 361.535156 605.855469 361.339844 605.894531 361.144531 C 605.914062 360.949219 605.929688 360.75 605.945312 360.554688 L 605.890625 360.921875 L 605.773438 360.90625 " fill-opacity="1" fill-rule="nonzero"/></g><g clip-path="url(#6e84ef3f80)"><path fill="#100f0d" d="M 606.042969 361.773438 C 606.09375 361.582031 606.140625 361.390625 606.191406 361.199219 C 606.21875 361 606.246094 360.804688 606.269531 360.609375 L 606.199219 360.972656 L 606.082031 360.953125 L 606.007812 361.386719 L 606.113281 361.40625 L 606.042969 361.773438 " fill-opacity="1" fill-rule="nonzero"/><path fill="#100f0d" d="M 606.3125 361.832031 C 606.367188 361.640625 606.429688 361.453125 606.488281 361.261719 C 606.523438 361.066406 606.558594 360.871094 606.59375 360.675781 L 606.503906 361.039062 L 606.386719 361.011719 L 606.292969 361.441406 L 606.398438 361.46875 L 606.3125 361.832031 " fill-opacity="1" fill-rule="nonzero"/><path fill="#100f0d" d="M 606.679688 361.542969 L 606.578125 361.898438 C 606.640625 361.714844 606.710938 361.527344 606.777344 361.339844 C 606.824219 361.148438 606.867188 360.953125 606.910156 360.761719 L 606.804688 361.117188 L 606.691406 361.085938 L 606.574219 361.511719 L 606.679688 361.542969 " fill-opacity="1" fill-rule="nonzero"/></g><g clip-path="url(#b2e6a3636f)"><path fill="#100f0d" d="M 606.960938 361.628906 L 606.835938 361.980469 C 606.914062 361.796875 606.988281 361.613281 607.066406 361.433594 C 607.121094 361.242188 607.171875 361.050781 607.226562 360.859375 L 607.101562 361.210938 L 606.992188 361.175781 L 606.855469 361.59375 L 606.960938 361.628906 " fill-opacity="1" fill-rule="nonzero"/></g><g clip-path="url(#1e7688d97e)"><path fill="#100f0d" d="M 607.230469 361.726562 L 607.09375 362.074219 C 607.179688 361.894531 607.261719 361.714844 607.347656 361.535156 C 607.410156 361.347656 607.472656 361.160156 607.535156 360.972656 L 607.394531 361.316406 L 607.285156 361.277344 L 607.128906 361.6875 L 607.230469 361.726562 " fill-opacity="1" fill-rule="nonzero"/></g><path fill="#100f0d" d="M 607.5 361.839844 L 607.347656 362.179688 C 607.4375 362.003906 607.53125 361.828125 607.625 361.652344 C 607.699219 361.46875 607.769531 361.285156 607.839844 361.097656 L 607.683594 361.4375 L 607.574219 361.390625 L 607.398438 361.796875 L 607.5 361.839844 " fill-opacity="1" fill-rule="nonzero"/><path fill="#100f0d" d="M 607.765625 361.964844 L 607.59375 362.296875 C 607.695312 362.125 607.796875 361.953125 607.898438 361.785156 C 607.976562 361.601562 608.058594 361.421875 608.136719 361.238281 L 607.964844 361.570312 L 607.859375 361.519531 L 607.664062 361.914062 L 607.765625 361.964844 " fill-opacity="1" fill-rule="nonzero"/><path fill="#100f0d" d="M 608.019531 362.101562 L 607.835938 362.425781 C 607.945312 362.257812 608.050781 362.09375 608.164062 361.925781 C 608.25 361.75 608.339844 361.570312 608.425781 361.394531 L 608.238281 361.71875 L 608.136719 361.660156 L 607.925781 362.046875 L 608.019531 362.101562 " fill-opacity="1" fill-rule="nonzero"/><path fill="#100f0d" d="M 608.175781 362.191406 L 608.269531 362.25 L 608.070312 362.5625 C 608.1875 362.402344 608.304688 362.242188 608.421875 362.082031 C 608.515625 361.90625 608.613281 361.734375 608.707031 361.558594 L 608.507812 361.875 L 608.40625 361.8125 L 608.175781 362.191406 " fill-opacity="1" fill-rule="nonzero"/><path fill="#100f0d" d="M 608.421875 362.34375 L 608.515625 362.40625 L 608.300781 362.714844 C 608.421875 362.558594 608.546875 362.402344 608.671875 362.246094 C 608.777344 362.078125 608.878906 361.910156 608.984375 361.738281 L 608.769531 362.046875 L 608.671875 361.980469 L 608.421875 362.34375 " fill-opacity="1" fill-rule="nonzero"/><path fill="#100f0d" d="M 608.660156 362.511719 L 608.75 362.578125 L 608.519531 362.875 C 608.652344 362.722656 608.78125 362.574219 608.914062 362.425781 C 609.027344 362.261719 609.136719 362.097656 609.25 361.929688 L 609.019531 362.226562 L 608.925781 362.15625 L 608.660156 362.511719 " fill-opacity="1" fill-rule="nonzero"/><path fill="#100f0d" d="M 608.890625 362.6875 L 608.976562 362.757812 L 608.734375 363.042969 C 608.871094 362.898438 609.007812 362.753906 609.148438 362.613281 C 609.269531 362.453125 609.386719 362.292969 609.503906 362.136719 L 609.261719 362.421875 L 609.171875 362.347656 L 608.890625 362.6875 " fill-opacity="1" fill-rule="nonzero"/><path fill="#100f0d" d="M 609.410156 362.546875 L 609.113281 362.875 L 609.195312 362.949219 L 608.941406 363.222656 C 609.082031 363.085938 609.226562 362.949219 609.375 362.808594 C 609.5 362.65625 609.628906 362.503906 609.753906 362.351562 L 609.496094 362.625 L 609.410156 362.546875 " fill-opacity="1" fill-rule="nonzero"/><path fill="#100f0d" d="M 609.636719 362.757812 L 609.328125 363.070312 L 609.40625 363.148438 L 609.136719 363.410156 C 609.289062 363.28125 609.4375 363.148438 609.589844 363.019531 C 609.722656 362.871094 609.855469 362.726562 609.988281 362.578125 L 609.722656 362.839844 L 609.636719 362.757812 " fill-opacity="1" fill-rule="nonzero"/><path fill="#100f0d" d="M 609.855469 362.976562 L 609.53125 363.277344 L 609.605469 363.359375 L 609.324219 363.609375 C 609.480469 363.484375 609.636719 363.359375 609.796875 363.238281 C 609.9375 363.097656 610.078125 362.957031 610.214844 362.8125 L 609.9375 363.0625 L 609.855469 362.976562 " fill-opacity="1" fill-rule="nonzero"/><path fill="#100f0d" d="M 610.0625 363.207031 L 609.726562 363.492188 L 609.796875 363.578125 L 609.503906 363.8125 C 609.664062 363.695312 609.828125 363.582031 609.992188 363.464844 C 610.136719 363.332031 610.285156 363.195312 610.429688 363.0625 L 610.140625 363.296875 L 610.0625 363.207031 " fill-opacity="1" fill-rule="nonzero"/><path fill="#100f0d" d="M 610.261719 363.445312 L 609.910156 363.714844 L 609.976562 363.804688 L 609.671875 364.027344 C 609.839844 363.917969 610.007812 363.808594 610.175781 363.699219 C 610.328125 363.574219 610.480469 363.445312 610.632812 363.316406 L 610.332031 363.539062 L 610.261719 363.445312 " fill-opacity="1" fill-rule="nonzero"/><path fill="#100f0d" d="M 610.445312 363.695312 L 610.082031 363.949219 L 610.144531 364.039062 L 609.832031 364.25 C 610.003906 364.144531 610.175781 364.046875 610.347656 363.945312 C 610.507812 363.824219 610.667969 363.703125 610.824219 363.582031 L 610.511719 363.792969 L 610.445312 363.695312 " fill-opacity="1" fill-rule="nonzero"/><path fill="#100f0d" d="M 610.621094 363.953125 L 610.242188 364.1875 L 610.300781 364.28125 L 609.980469 364.476562 C 610.15625 364.382812 610.332031 364.289062 610.511719 364.195312 C 610.675781 364.085938 610.839844 363.972656 611.003906 363.855469 L 610.683594 364.050781 L 610.621094 363.953125 " fill-opacity="1" fill-rule="nonzero"/><path fill="#100f0d" d="M 610.78125 364.214844 L 610.394531 364.433594 L 610.449219 364.53125 L 610.117188 364.710938 C 610.300781 364.625 610.480469 364.539062 610.660156 364.457031 C 610.832031 364.351562 611 364.246094 611.167969 364.136719 L 610.839844 364.316406 L 610.78125 364.214844 " fill-opacity="1" fill-rule="nonzero"/><path fill="#100f0d" d="M 610.929688 364.488281 L 610.535156 364.6875 L 610.582031 364.785156 L 610.246094 364.949219 C 610.429688 364.875 610.613281 364.796875 610.800781 364.722656 C 610.972656 364.625 611.148438 364.527344 611.320312 364.429688 L 610.984375 364.59375 L 610.929688 364.488281 " fill-opacity="1" fill-rule="nonzero"/><path fill="#100f0d" d="M 611.066406 364.765625 L 610.660156 364.949219 L 610.707031 365.046875 L 610.359375 365.195312 C 610.546875 365.128906 610.738281 365.058594 610.925781 364.992188 C 611.105469 364.902344 611.28125 364.816406 611.460938 364.722656 L 611.113281 364.871094 L 611.066406 364.765625 " fill-opacity="1" fill-rule="nonzero"/><path fill="#100f0d" d="M 611.1875 365.046875 L 610.777344 365.210938 L 610.816406 365.316406 L 610.464844 365.449219 C 610.65625 365.386719 610.84375 365.328125 611.039062 365.269531 C 611.21875 365.1875 611.402344 365.109375 611.582031 365.023438 L 611.230469 365.160156 L 611.1875 365.046875 " fill-opacity="1" fill-rule="nonzero"/><path fill="#100f0d" d="M 611.296875 365.339844 L 610.878906 365.484375 L 610.914062 365.585938 L 610.554688 365.703125 C 610.75 365.652344 610.941406 365.601562 611.136719 365.550781 C 611.324219 365.480469 611.507812 365.40625 611.695312 365.332031 L 611.335938 365.449219 L 611.296875 365.339844 " fill-opacity="1" fill-rule="nonzero"/><path fill="#100f0d" d="M 611.394531 365.632812 L 610.96875 365.757812 L 610.996094 365.863281 L 610.636719 365.960938 C 610.832031 365.921875 611.027344 365.878906 611.222656 365.839844 C 611.410156 365.773438 611.601562 365.710938 611.789062 365.644531 L 611.425781 365.746094 L 611.394531 365.632812 " fill-opacity="1" fill-rule="nonzero"/><path fill="#100f0d" d="M 611.476562 365.929688 L 611.042969 366.035156 L 611.070312 366.140625 L 610.703125 366.226562 C 610.898438 366.191406 611.097656 366.160156 611.292969 366.128906 C 611.488281 366.074219 611.679688 366.019531 611.871094 365.960938 L 611.503906 366.042969 L 611.476562 365.929688 " fill-opacity="1" fill-rule="nonzero"/><path fill="#100f0d" d="M 611.542969 366.230469 L 611.105469 366.316406 L 611.128906 366.425781 L 610.757812 366.492188 C 610.957031 366.464844 611.152344 366.441406 611.351562 366.421875 C 611.546875 366.375 611.742188 366.328125 611.9375 366.28125 L 611.566406 366.347656 L 611.542969 366.230469 " fill-opacity="1" fill-rule="nonzero"/><path fill="#100f0d" d="M 611.597656 366.535156 L 611.15625 366.601562 L 611.171875 366.710938 L 610.796875 366.757812 C 611 366.742188 611.199219 366.730469 611.398438 366.714844 C 611.59375 366.679688 611.789062 366.640625 611.988281 366.601562 L 611.613281 366.652344 L 611.597656 366.535156 " fill-opacity="1" fill-rule="nonzero"/><g clip-path="url(#9405333e94)"><path fill="#100f0d" d="M 611.636719 366.84375 L 611.195312 366.886719 L 611.203125 366.996094 L 610.828125 367.027344 C 611.027344 367.023438 611.230469 367.015625 611.429688 367.011719 C 611.628906 366.984375 611.824219 366.957031 612.023438 366.925781 L 611.648438 366.957031 L 611.636719 366.84375 " fill-opacity="1" fill-rule="nonzero"/></g><g clip-path="url(#e143bb6614)"><path fill="#100f0d" d="M 611.667969 367.265625 L 611.660156 367.148438 L 611.21875 367.175781 L 611.222656 367.285156 L 610.84375 367.296875 C 611.046875 367.300781 611.246094 367.304688 611.445312 367.3125 C 611.644531 367.292969 611.84375 367.273438 612.042969 367.25 L 611.667969 367.265625 " fill-opacity="1" fill-rule="nonzero"/></g><path fill="#100f0d" d="M 611.449219 367.535156 L 611.75 367.519531 L 611.5625 367.519531 L 611.5625 367.460938 L 611.339844 367.464844 L 611.339844 367.519531 L 611.148438 367.519531 L 611.449219 367.535156 " fill-opacity="1" fill-rule="nonzero"/><path fill="#100f0d" d="M 611.753906 367.726562 L 611.566406 367.726562 L 611.566406 367.667969 L 611.34375 367.667969 L 611.34375 367.726562 L 611.152344 367.722656 L 611.453125 367.742188 L 611.753906 367.726562 " fill-opacity="1" fill-rule="nonzero"/><g clip-path="url(#f9aad8d459)"><path fill="#100f0d" d="M 611.671875 367.902344 L 611.226562 367.886719 L 611.222656 367.996094 L 610.847656 367.976562 C 611.046875 367.996094 611.242188 368.019531 611.441406 368.042969 C 611.644531 368.042969 611.84375 368.039062 612.042969 368.035156 L 611.667969 368.015625 L 611.671875 367.902344 " fill-opacity="1" fill-rule="nonzero"/></g><g clip-path="url(#a073a9603b)"><path fill="#100f0d" d="M 611.65625 368.207031 L 611.210938 368.171875 L 611.199219 368.28125 L 610.824219 368.246094 C 611.023438 368.277344 611.222656 368.308594 611.417969 368.339844 C 611.617188 368.347656 611.820312 368.355469 612.019531 368.363281 L 611.644531 368.324219 L 611.65625 368.207031 " fill-opacity="1" fill-rule="nonzero"/></g><path fill="#100f0d" d="M 611.621094 368.515625 L 611.179688 368.460938 L 611.164062 368.570312 L 610.792969 368.515625 C 610.988281 368.554688 611.183594 368.59375 611.382812 368.636719 C 611.582031 368.652344 611.78125 368.671875 611.980469 368.683594 L 611.605469 368.632812 L 611.621094 368.515625 " fill-opacity="1" fill-rule="nonzero"/><path fill="#100f0d" d="M 611.578125 368.820312 L 611.136719 368.746094 L 611.117188 368.855469 L 610.746094 368.78125 C 610.941406 368.832031 611.136719 368.878906 611.328125 368.929688 C 611.527344 368.957031 611.726562 368.980469 611.925781 369.007812 L 611.554688 368.9375 L 611.578125 368.820312 " fill-opacity="1" fill-rule="nonzero"/><path fill="#100f0d" d="M 611.515625 369.125 L 611.082031 369.027344 L 611.054688 369.136719 L 610.691406 369.046875 C 610.882812 369.105469 611.074219 369.164062 611.265625 369.222656 C 611.460938 369.257812 611.65625 369.292969 611.855469 369.324219 L 611.488281 369.238281 L 611.515625 369.125 " fill-opacity="1" fill-rule="nonzero"/><path fill="#100f0d" d="M 611.441406 369.425781 L 611.011719 369.308594 L 610.980469 369.414062 L 610.621094 369.308594 C 610.808594 369.375 610.996094 369.441406 611.183594 369.511719 C 611.378906 369.554688 611.574219 369.597656 611.769531 369.640625 L 611.410156 369.535156 L 611.441406 369.425781 " fill-opacity="1" fill-rule="nonzero"/><path fill="#100f0d" d="M 611.351562 369.71875 L 610.929688 369.585938 L 610.894531 369.6875 L 610.535156 369.566406 C 610.722656 369.644531 610.90625 369.71875 611.09375 369.792969 C 611.285156 369.847656 611.476562 369.898438 611.671875 369.953125 L 611.3125 369.832031 L 611.351562 369.71875 " fill-opacity="1" fill-rule="nonzero"/><path fill="#100f0d" d="M 611.25 370.011719 L 610.832031 369.855469 L 610.792969 369.960938 L 610.441406 369.824219 C 610.625 369.90625 610.804688 369.988281 610.988281 370.074219 C 611.175781 370.136719 611.367188 370.199219 611.558594 370.257812 L 611.207031 370.121094 L 611.25 370.011719 " fill-opacity="1" fill-rule="nonzero"/><path fill="#100f0d" d="M 611.132812 370.296875 L 610.722656 370.125 L 610.679688 370.226562 L 610.335938 370.070312 C 610.515625 370.164062 610.691406 370.253906 610.867188 370.347656 C 611.054688 370.417969 611.242188 370.488281 611.429688 370.558594 L 611.085938 370.40625 L 611.132812 370.296875 " fill-opacity="1" fill-rule="nonzero"/><path fill="#100f0d" d="M 611.003906 370.578125 L 610.601562 370.386719 L 610.554688 370.484375 L 610.21875 370.316406 C 610.390625 370.414062 610.5625 370.515625 610.738281 370.617188 C 610.917969 370.695312 611.101562 370.773438 611.289062 370.851562 L 610.953125 370.683594 L 611.003906 370.578125 " fill-opacity="1" fill-rule="nonzero"/><path fill="#100f0d" d="M 610.863281 370.855469 L 610.46875 370.644531 L 610.417969 370.738281 L 610.089844 370.554688 C 610.257812 370.664062 610.425781 370.769531 610.59375 370.878906 C 610.773438 370.964844 610.953125 371.054688 611.132812 371.140625 L 610.804688 370.957031 L 610.863281 370.855469 " fill-opacity="1" fill-rule="nonzero"/><path fill="#100f0d" d="M 610.707031 371.121094 L 610.324219 370.894531 L 610.265625 370.988281 L 609.949219 370.789062 C 610.109375 370.902344 610.273438 371.019531 610.4375 371.132812 C 610.609375 371.230469 610.785156 371.324219 610.960938 371.417969 L 610.644531 371.222656 L 610.707031 371.121094 " fill-opacity="1" fill-rule="nonzero"/><path fill="#100f0d" d="M 610.539062 371.382812 L 610.167969 371.136719 L 610.105469 371.226562 L 609.796875 371.015625 C 609.953125 371.136719 610.113281 371.257812 610.269531 371.382812 C 610.4375 371.488281 610.609375 371.589844 610.78125 371.691406 L 610.472656 371.480469 L 610.539062 371.382812 " fill-opacity="1" fill-rule="nonzero"/><path fill="#100f0d" d="M 610.359375 371.632812 L 610 371.371094 L 609.933594 371.460938 L 609.636719 371.234375 C 609.789062 371.363281 609.9375 371.492188 610.089844 371.621094 C 610.253906 371.734375 610.421875 371.84375 610.585938 371.953125 L 610.289062 371.726562 L 610.359375 371.632812 " fill-opacity="1" fill-rule="nonzero"/><path fill="#100f0d" d="M 610.167969 371.878906 L 609.824219 371.601562 L 609.75 371.683594 L 609.464844 371.445312 C 609.609375 371.582031 609.753906 371.71875 609.898438 371.855469 C 610.058594 371.972656 610.21875 372.089844 610.382812 372.207031 L 610.09375 371.96875 L 610.167969 371.878906 " fill-opacity="1" fill-rule="nonzero"/><path fill="#100f0d" d="M 609.964844 372.113281 L 609.632812 371.820312 L 609.558594 371.902344 L 609.28125 371.648438 C 609.421875 371.789062 609.5625 371.933594 609.699219 372.078125 C 609.851562 372.203125 610.007812 372.328125 610.164062 372.453125 L 609.886719 372.199219 L 609.964844 372.113281 " fill-opacity="1" fill-rule="nonzero"/><path fill="#100f0d" d="M 609.753906 372.339844 L 609.433594 372.03125 L 609.355469 372.109375 L 609.089844 371.84375 C 609.222656 371.992188 609.355469 372.140625 609.488281 372.289062 C 609.636719 372.425781 609.785156 372.554688 609.933594 372.6875 L 609.667969 372.421875 L 609.753906 372.339844 " fill-opacity="1" fill-rule="nonzero"/><path fill="#100f0d" d="M 609.53125 372.554688 L 609.226562 372.234375 L 609.144531 372.308594 L 608.894531 372.03125 C 609.019531 372.183594 609.144531 372.339844 609.265625 372.496094 C 609.410156 372.632812 609.550781 372.773438 609.695312 372.910156 L 609.441406 372.632812 L 609.53125 372.554688 " fill-opacity="1" fill-rule="nonzero"/><path fill="#100f0d" d="M 609.296875 372.761719 L 609.007812 372.425781 L 608.921875 372.496094 L 608.683594 372.207031 C 608.804688 372.367188 608.921875 372.527344 609.039062 372.6875 C 609.171875 372.832031 609.308594 372.980469 609.445312 373.125 L 609.207031 372.835938 L 609.296875 372.761719 " fill-opacity="1" fill-rule="nonzero"/><path fill="#100f0d" d="M 609.054688 372.957031 L 608.78125 372.605469 L 608.695312 372.671875 L 608.46875 372.375 C 608.578125 372.539062 608.691406 372.703125 608.800781 372.871094 C 608.925781 373.023438 609.054688 373.171875 609.1875 373.324219 L 608.960938 373.027344 L 609.054688 372.957031 " fill-opacity="1" fill-rule="nonzero"/><path fill="#100f0d" d="M 608.804688 373.136719 L 608.546875 372.777344 L 608.457031 372.839844 L 608.246094 372.53125 C 608.347656 372.699219 608.449219 372.871094 608.550781 373.042969 C 608.671875 373.199219 608.792969 373.355469 608.917969 373.511719 L 608.707031 373.203125 L 608.804688 373.136719 " fill-opacity="1" fill-rule="nonzero"/><path fill="#100f0d" d="M 608.546875 373.308594 L 608.304688 372.9375 L 608.210938 372.996094 L 608.015625 372.679688 C 608.109375 372.851562 608.203125 373.027344 608.296875 373.203125 C 608.410156 373.367188 608.527344 373.527344 608.640625 373.691406 L 608.445312 373.371094 L 608.546875 373.308594 " fill-opacity="1" fill-rule="nonzero"/><path fill="#100f0d" d="M 608.277344 373.46875 L 608.058594 373.085938 L 607.960938 373.140625 L 607.777344 372.8125 C 607.863281 372.992188 607.949219 373.171875 608.035156 373.351562 C 608.140625 373.519531 608.25 373.6875 608.355469 373.855469 L 608.175781 373.527344 L 608.277344 373.46875 " fill-opacity="1" fill-rule="nonzero"/><g clip-path="url(#72bcdac891)"><path fill="#100f0d" d="M 608.003906 373.617188 L 607.800781 373.226562 L 607.703125 373.273438 L 607.535156 372.941406 C 607.613281 373.121094 607.691406 373.304688 607.765625 373.488281 C 607.867188 373.660156 607.964844 373.832031 608.0625 374.003906 L 607.898438 373.667969 L 608.003906 373.617188 " fill-opacity="1" fill-rule="nonzero"/></g><g clip-path="url(#dbd0b636c3)"><path fill="#100f0d" d="M 607.722656 373.75 L 607.539062 373.351562 L 607.4375 373.394531 L 607.285156 373.054688 C 607.355469 373.238281 607.425781 373.425781 607.492188 373.613281 C 607.582031 373.789062 607.671875 373.964844 607.765625 374.140625 L 607.613281 373.800781 L 607.722656 373.75 " fill-opacity="1" fill-rule="nonzero"/><path fill="#100f0d" d="M 607.4375 373.875 L 607.269531 373.464844 L 607.167969 373.503906 L 607.035156 373.15625 C 607.09375 373.34375 607.152344 373.535156 607.210938 373.722656 C 607.292969 373.902344 607.375 374.085938 607.460938 374.265625 L 607.324219 373.914062 L 607.4375 373.875 " fill-opacity="1" fill-rule="nonzero"/></g><g clip-path="url(#9a78da6358)"><path fill="#100f0d" d="M 607.144531 373.980469 L 606.996094 373.566406 L 606.894531 373.601562 L 606.773438 373.246094 C 606.828125 373.4375 606.878906 373.628906 606.925781 373.820312 C 607 374.003906 607.074219 374.191406 607.148438 374.375 L 607.03125 374.019531 L 607.144531 373.980469 " fill-opacity="1" fill-rule="nonzero"/></g><g clip-path="url(#1ffc0a1b72)"><path fill="#100f0d" d="M 606.71875 373.65625 L 606.613281 373.683594 L 606.511719 373.324219 C 606.554688 373.519531 606.597656 373.710938 606.636719 373.90625 C 606.703125 374.09375 606.765625 374.28125 606.832031 374.46875 L 606.734375 374.109375 L 606.847656 374.078125 L 606.71875 373.65625 " fill-opacity="1" fill-rule="nonzero"/><path fill="#100f0d" d="M 606.4375 373.730469 L 606.332031 373.753906 L 606.246094 373.390625 C 606.28125 373.585938 606.3125 373.78125 606.34375 373.976562 C 606.402344 374.167969 606.457031 374.359375 606.515625 374.546875 L 606.429688 374.183594 L 606.546875 374.15625 L 606.4375 373.730469 " fill-opacity="1" fill-rule="nonzero"/></g><g clip-path="url(#d60b3375ce)"><path fill="#100f0d" d="M 606.15625 373.792969 L 606.046875 373.8125 L 605.980469 373.445312 C 606.003906 373.640625 606.027344 373.839844 606.050781 374.035156 C 606.097656 374.226562 606.144531 374.421875 606.191406 374.613281 L 606.125 374.246094 L 606.242188 374.222656 L 606.15625 373.792969 " fill-opacity="1" fill-rule="nonzero"/></g><g clip-path="url(#3455aee587)"><path fill="#100f0d" d="M 605.867188 373.839844 L 605.757812 373.855469 L 605.707031 373.488281 C 605.722656 373.683594 605.738281 373.882812 605.75 374.082031 C 605.789062 374.273438 605.828125 374.46875 605.867188 374.664062 L 605.816406 374.292969 L 605.933594 374.277344 L 605.867188 373.839844 " fill-opacity="1" fill-rule="nonzero"/><path fill="#100f0d" d="M 605.578125 373.878906 L 605.46875 373.886719 L 605.4375 373.515625 C 605.441406 373.714844 605.445312 373.914062 605.449219 374.109375 C 605.480469 374.304688 605.507812 374.503906 605.539062 374.699219 L 605.507812 374.328125 L 605.625 374.316406 L 605.578125 373.878906 " fill-opacity="1" fill-rule="nonzero"/><path fill="#100f0d" d="M 605.289062 373.902344 L 605.175781 373.90625 L 605.164062 373.535156 C 605.160156 373.730469 605.15625 373.929688 605.148438 374.128906 C 605.167969 374.324219 605.1875 374.523438 605.210938 374.71875 L 605.195312 374.347656 L 605.3125 374.339844 L 605.289062 373.902344 " fill-opacity="1" fill-rule="nonzero"/></g><g clip-path="url(#d5448205b0)"><path fill="#100f0d" d="M 604.886719 373.910156 L 604.886719 373.539062 C 604.875 373.734375 604.863281 373.933594 604.847656 374.128906 C 604.859375 374.328125 604.871094 374.527344 604.882812 374.722656 L 604.882812 374.351562 C 604.921875 374.351562 604.960938 374.351562 605 374.351562 L 604.996094 373.910156 C 604.960938 373.910156 604.921875 373.910156 604.886719 373.910156 " fill-opacity="1" fill-rule="nonzero"/><path fill="#100f0d" d="M 604.613281 373.53125 C 604.59375 373.726562 604.570312 373.925781 604.546875 374.121094 C 604.546875 374.320312 604.550781 374.515625 604.550781 374.714844 L 604.570312 374.34375 L 604.691406 374.347656 L 604.703125 373.90625 L 604.59375 373.902344 L 604.613281 373.53125 " fill-opacity="1" fill-rule="nonzero"/><path fill="#100f0d" d="M 604.339844 373.511719 C 604.308594 373.707031 604.277344 373.902344 604.246094 374.097656 C 604.238281 374.292969 604.230469 374.492188 604.222656 374.691406 L 604.261719 374.320312 L 604.378906 374.332031 L 604.414062 373.890625 L 604.304688 373.882812 L 604.339844 373.511719 " fill-opacity="1" fill-rule="nonzero"/></g><g clip-path="url(#6c7d0b5b46)"><path fill="#100f0d" d="M 604.066406 373.476562 C 604.027344 373.671875 603.988281 373.867188 603.945312 374.058594 C 603.929688 374.257812 603.914062 374.453125 603.898438 374.652344 L 603.949219 374.28125 L 604.066406 374.296875 L 604.125 373.863281 L 604.015625 373.847656 L 604.066406 373.476562 " fill-opacity="1" fill-rule="nonzero"/></g><g clip-path="url(#a9c013a4e2)"><path fill="#100f0d" d="M 603.796875 373.433594 C 603.75 373.625 603.699219 373.816406 603.648438 374.007812 C 603.621094 374.203125 603.597656 374.402344 603.570312 374.597656 L 603.644531 374.230469 L 603.757812 374.253906 L 603.835938 373.820312 L 603.726562 373.796875 L 603.796875 373.433594 " fill-opacity="1" fill-rule="nonzero"/><path fill="#100f0d" d="M 603.53125 373.375 C 603.472656 373.566406 603.414062 373.753906 603.355469 373.945312 C 603.320312 374.136719 603.285156 374.332031 603.25 374.527344 L 603.339844 374.167969 L 603.453125 374.191406 L 603.550781 373.761719 L 603.441406 373.738281 L 603.53125 373.375 " fill-opacity="1" fill-rule="nonzero"/></g><g clip-path="url(#9ad96a7fe2)"><path fill="#100f0d" d="M 603.160156 373.664062 L 603.265625 373.304688 C 603.199219 373.492188 603.132812 373.679688 603.0625 373.867188 C 603.019531 374.058594 602.972656 374.25 602.929688 374.445312 L 603.035156 374.085938 L 603.148438 374.117188 L 603.265625 373.695312 L 603.160156 373.664062 " fill-opacity="1" fill-rule="nonzero"/><path fill="#100f0d" d="M 602.882812 373.578125 L 603.003906 373.222656 C 602.929688 373.40625 602.851562 373.589844 602.777344 373.773438 C 602.722656 373.964844 602.667969 374.15625 602.617188 374.347656 L 602.738281 373.996094 L 602.851562 374.03125 L 602.988281 373.613281 L 602.882812 373.578125 " fill-opacity="1" fill-rule="nonzero"/></g><g clip-path="url(#242773a25c)"><path fill="#100f0d" d="M 602.609375 373.476562 L 602.746094 373.132812 C 602.664062 373.3125 602.578125 373.492188 602.492188 373.667969 C 602.429688 373.859375 602.367188 374.046875 602.308594 374.234375 L 602.445312 373.886719 L 602.554688 373.929688 L 602.710938 373.515625 L 602.609375 373.476562 " fill-opacity="1" fill-rule="nonzero"/><path fill="#100f0d" d="M 602.339844 373.367188 L 602.496094 373.027344 C 602.402344 373.203125 602.308594 373.378906 602.214844 373.550781 C 602.144531 373.738281 602.074219 373.921875 602.003906 374.105469 L 602.15625 373.765625 L 602.265625 373.816406 L 602.441406 373.410156 L 602.339844 373.367188 " fill-opacity="1" fill-rule="nonzero"/></g><path fill="#100f0d" d="M 602.078125 373.242188 L 602.246094 372.910156 C 602.148438 373.082031 602.046875 373.25 601.945312 373.421875 C 601.863281 373.601562 601.785156 373.785156 601.707031 373.96875 L 601.875 373.632812 L 601.984375 373.6875 L 602.175781 373.289062 L 602.078125 373.242188 " fill-opacity="1" fill-rule="nonzero"/><path fill="#100f0d" d="M 601.820312 373.105469 L 602.007812 372.78125 C 601.898438 372.949219 601.789062 373.113281 601.679688 373.28125 C 601.589844 373.457031 601.503906 373.636719 601.417969 373.8125 L 601.601562 373.488281 L 601.703125 373.546875 L 601.917969 373.160156 L 601.820312 373.105469 " fill-opacity="1" fill-rule="nonzero"/><path fill="#100f0d" d="M 601.664062 373.015625 L 601.570312 372.957031 L 601.769531 372.640625 C 601.65625 372.804688 601.539062 372.964844 601.421875 373.125 C 601.324219 373.296875 601.226562 373.472656 601.132812 373.644531 L 601.332031 373.332031 L 601.433594 373.390625 L 601.664062 373.015625 " fill-opacity="1" fill-rule="nonzero"/><path fill="#100f0d" d="M 601.417969 372.859375 L 601.328125 372.796875 L 601.542969 372.492188 C 601.417969 372.648438 601.296875 372.804688 601.171875 372.960938 C 601.066406 373.128906 600.960938 373.296875 600.859375 373.464844 L 601.074219 373.160156 L 601.171875 373.226562 L 601.417969 372.859375 " fill-opacity="1" fill-rule="nonzero"/><path fill="#100f0d" d="M 601.179688 372.695312 L 601.09375 372.628906 L 601.320312 372.332031 C 601.191406 372.484375 601.058594 372.632812 600.925781 372.78125 C 600.816406 372.945312 600.703125 373.109375 600.59375 373.273438 L 600.820312 372.980469 L 600.914062 373.050781 L 601.179688 372.695312 " fill-opacity="1" fill-rule="nonzero"/><path fill="#100f0d" d="M 600.949219 372.519531 L 600.863281 372.449219 L 601.109375 372.164062 C 600.96875 372.308594 600.832031 372.449219 600.695312 372.59375 C 600.574219 372.753906 600.453125 372.910156 600.335938 373.070312 L 600.578125 372.785156 L 600.667969 372.859375 L 600.949219 372.519531 " fill-opacity="1" fill-rule="nonzero"/><path fill="#100f0d" d="M 600.433594 372.660156 L 600.726562 372.332031 L 600.644531 372.257812 L 600.902344 371.984375 C 600.757812 372.121094 600.613281 372.257812 600.46875 372.394531 C 600.339844 372.546875 600.214844 372.699219 600.089844 372.855469 L 600.34375 372.582031 L 600.433594 372.660156 " fill-opacity="1" fill-rule="nonzero"/><path fill="#100f0d" d="M 600.203125 372.449219 L 600.515625 372.132812 L 600.4375 372.058594 L 600.703125 371.796875 C 600.554688 371.925781 600.402344 372.058594 600.253906 372.1875 C 600.117188 372.332031 599.984375 372.480469 599.851562 372.628906 L 600.121094 372.367188 L 600.203125 372.449219 " fill-opacity="1" fill-rule="nonzero"/><path fill="#100f0d" d="M 599.984375 372.230469 L 600.3125 371.929688 L 600.238281 371.847656 L 600.515625 371.597656 C 600.359375 371.722656 600.203125 371.847656 600.046875 371.96875 C 599.90625 372.109375 599.765625 372.25 599.625 372.390625 L 599.90625 372.140625 L 599.984375 372.230469 " fill-opacity="1" fill-rule="nonzero"/><path fill="#100f0d" d="M 599.777344 372 L 600.117188 371.710938 L 600.046875 371.628906 L 600.335938 371.390625 C 600.175781 371.507812 600.015625 371.625 599.851562 371.742188 C 599.703125 371.875 599.558594 372.011719 599.410156 372.144531 L 599.703125 371.910156 L 599.777344 372 " fill-opacity="1" fill-rule="nonzero"/><path fill="#100f0d" d="M 599.582031 371.757812 L 599.933594 371.488281 L 599.867188 371.402344 L 600.167969 371.179688 C 600 371.289062 599.835938 371.398438 599.664062 371.503906 C 599.511719 371.632812 599.359375 371.761719 599.207031 371.886719 L 599.507812 371.664062 L 599.582031 371.757812 " fill-opacity="1" fill-rule="nonzero"/><path fill="#100f0d" d="M 599.394531 371.511719 L 599.761719 371.257812 L 599.699219 371.167969 L 600.007812 370.957031 C 599.835938 371.058594 599.664062 371.160156 599.492188 371.261719 C 599.332031 371.378906 599.175781 371.5 599.015625 371.625 L 599.328125 371.414062 L 599.394531 371.511719 " fill-opacity="1" fill-rule="nonzero"/><path fill="#100f0d" d="M 599.222656 371.253906 L 599.597656 371.015625 L 599.539062 370.925781 L 599.859375 370.730469 C 599.683594 370.824219 599.507812 370.917969 599.332031 371.007812 C 599.167969 371.121094 599.003906 371.234375 598.839844 371.347656 L 599.160156 371.15625 L 599.222656 371.253906 " fill-opacity="1" fill-rule="nonzero"/><path fill="#100f0d" d="M 599.0625 370.988281 L 599.445312 370.769531 L 599.394531 370.675781 L 599.722656 370.496094 C 599.542969 370.582031 599.363281 370.667969 599.179688 370.75 C 599.011719 370.855469 598.839844 370.960938 598.671875 371.066406 L 599.003906 370.886719 L 599.0625 370.988281 " fill-opacity="1" fill-rule="nonzero"/><path fill="#100f0d" d="M 598.910156 370.71875 L 599.308594 370.519531 L 599.257812 370.417969 L 599.597656 370.253906 C 599.414062 370.332031 599.226562 370.410156 599.042969 370.484375 C 598.867188 370.582031 598.695312 370.679688 598.519531 370.777344 L 598.859375 370.613281 L 598.910156 370.71875 " fill-opacity="1" fill-rule="nonzero"/><path fill="#100f0d" d="M 598.777344 370.441406 L 599.179688 370.257812 L 599.136719 370.15625 L 599.480469 370.007812 C 599.292969 370.078125 599.105469 370.144531 598.917969 370.210938 C 598.738281 370.300781 598.558594 370.390625 598.382812 370.484375 L 598.726562 370.332031 L 598.777344 370.441406 " fill-opacity="1" fill-rule="nonzero"/><path fill="#100f0d" d="M 598.652344 370.15625 L 599.066406 369.992188 L 599.027344 369.890625 L 599.378906 369.757812 C 599.1875 369.820312 598.996094 369.878906 598.804688 369.9375 C 598.621094 370.015625 598.441406 370.097656 598.257812 370.179688 L 598.609375 370.046875 L 598.652344 370.15625 " fill-opacity="1" fill-rule="nonzero"/><path fill="#100f0d" d="M 598.542969 369.867188 L 598.964844 369.722656 L 598.929688 369.621094 L 599.285156 369.503906 C 599.09375 369.554688 598.898438 369.605469 598.707031 369.652344 C 598.519531 369.726562 598.332031 369.800781 598.148438 369.871094 L 598.503906 369.757812 L 598.542969 369.867188 " fill-opacity="1" fill-rule="nonzero"/><path fill="#100f0d" d="M 598.449219 369.574219 L 598.875 369.449219 L 598.84375 369.34375 L 599.207031 369.242188 C 599.011719 369.285156 598.816406 369.328125 598.621094 369.367188 C 598.429688 369.429688 598.242188 369.496094 598.050781 369.5625 L 598.414062 369.460938 L 598.449219 369.574219 " fill-opacity="1" fill-rule="nonzero"/><g clip-path="url(#fab68ecd19)"><path fill="#100f0d" d="M 598.367188 369.277344 L 598.796875 369.171875 L 598.773438 369.0625 L 599.140625 368.980469 C 598.941406 369.015625 598.746094 369.046875 598.546875 369.078125 C 598.355469 369.132812 598.164062 369.1875 597.972656 369.246094 L 598.339844 369.160156 L 598.367188 369.277344 " fill-opacity="1" fill-rule="nonzero"/></g><g clip-path="url(#5a4dbab90e)"><path fill="#100f0d" d="M 598.296875 368.976562 L 598.734375 368.890625 L 598.714844 368.78125 L 599.085938 368.714844 C 598.886719 368.738281 598.6875 368.761719 598.488281 368.785156 C 598.292969 368.832031 598.101562 368.878906 597.90625 368.925781 L 598.277344 368.859375 L 598.296875 368.976562 " fill-opacity="1" fill-rule="nonzero"/><path fill="#100f0d" d="M 598.246094 368.671875 L 598.683594 368.605469 L 598.667969 368.496094 L 599.042969 368.449219 C 598.84375 368.460938 598.644531 368.476562 598.445312 368.488281 C 598.246094 368.527344 598.050781 368.5625 597.855469 368.601562 L 598.226562 368.554688 L 598.246094 368.671875 " fill-opacity="1" fill-rule="nonzero"/><path fill="#100f0d" d="M 598.207031 368.363281 L 598.648438 368.320312 L 598.636719 368.210938 L 599.011719 368.175781 C 598.8125 368.183594 598.613281 368.1875 598.414062 368.191406 C 598.214844 368.21875 598.015625 368.25 597.820312 368.28125 L 598.195312 368.246094 L 598.207031 368.363281 " fill-opacity="1" fill-rule="nonzero"/></g><g clip-path="url(#ab6971b067)"><path fill="#100f0d" d="M 598.179688 368.054688 L 598.625 368.03125 L 598.621094 367.921875 L 598.996094 367.90625 C 598.796875 367.902344 598.597656 367.898438 598.394531 367.894531 C 598.195312 367.914062 597.996094 367.933594 597.796875 367.953125 L 598.175781 367.941406 L 598.179688 368.054688 " fill-opacity="1" fill-rule="nonzero"/></g><path fill="#100f0d" d="M 598.390625 367.667969 L 598.089844 367.6875 L 598.28125 367.6875 L 598.28125 367.746094 L 598.503906 367.742188 L 598.503906 367.6875 L 598.691406 367.6875 L 598.390625 367.667969 " fill-opacity="1" fill-rule="nonzero"/></svg>